<svg xmlns="http://www.w3.org/2000/svg" xmlns:xlink="http://www.w3.org/1999/xlink" width="500" zoomAndPan="magnify" viewBox="0 0 375 374.999991" height="500" preserveAspectRatio="xMidYMid meet" version="1.0"><defs><g/><clipPath id="17f132c5f5"><path d="M 192 60 L 254 60 L 254 203 L 192 203 Z M 192 60 " clip-rule="nonzero"/></clipPath><clipPath id="787db1c45e"><path d="M 235.542969 59.898438 L 285.5625 78.167969 L 234.875 216.953125 L 184.855469 198.683594 Z M 235.542969 59.898438 " clip-rule="nonzero"/></clipPath><clipPath id="68cea5fc19"><path d="M 235.542969 59.898438 L 285.5625 78.167969 L 234.875 216.953125 L 184.855469 198.683594 Z M 235.542969 59.898438 " clip-rule="nonzero"/></clipPath><clipPath id="622b67be8a"><path d="M 227 76 L 283 76 L 283 216 L 227 216 Z M 227 76 " clip-rule="nonzero"/></clipPath><clipPath id="22066ba4ba"><path d="M 235.542969 59.898438 L 285.5625 78.167969 L 234.875 216.953125 L 184.855469 198.683594 Z M 235.542969 59.898438 " clip-rule="nonzero"/></clipPath><clipPath id="f6a468a348"><path d="M 235.542969 59.898438 L 285.5625 78.167969 L 234.875 216.953125 L 184.855469 198.683594 Z M 235.542969 59.898438 " clip-rule="nonzero"/></clipPath><clipPath id="6295d3900f"><path d="M 156 104 L 333 104 L 333 289 L 156 289 Z M 156 104 " clip-rule="nonzero"/></clipPath><clipPath id="b8e8c8038d"><path d="M 224.789062 315.09375 L 130.328125 230.578125 L 280.351562 62.894531 L 374.8125 147.410156 Z M 224.789062 315.09375 " clip-rule="nonzero"/></clipPath><clipPath id="fda77aab76"><path d="M 224.789062 315.09375 L 130.328125 230.578125 L 280.351562 62.894531 L 374.8125 147.410156 Z M 224.789062 315.09375 " clip-rule="nonzero"/></clipPath><clipPath id="f857c2e025"><path d="M 143 146 L 299 146 L 299 301 L 143 301 Z M 143 146 " clip-rule="nonzero"/></clipPath><clipPath id="e0b7ac7309"><path d="M 289.785156 138.363281 L 306.265625 292.265625 L 152.359375 308.746094 L 135.878906 154.839844 Z M 289.785156 138.363281 " clip-rule="nonzero"/></clipPath><clipPath id="4a4c02d7cf"><path d="M 298.023438 215.316406 C 293.472656 172.816406 255.332031 142.050781 212.832031 146.601562 C 170.332031 151.152344 139.570312 189.292969 144.121094 231.792969 C 148.671875 274.292969 186.8125 305.058594 229.3125 300.507812 C 271.8125 295.957031 302.578125 257.8125 298.023438 215.316406 Z M 298.023438 215.316406 " clip-rule="nonzero"/></clipPath><clipPath id="0dad56193e"><path d="M 143 146 L 299 146 L 299 301 L 143 301 Z M 143 146 " clip-rule="nonzero"/></clipPath><clipPath id="a02e7a4ff9"><path d="M 289.785156 138.363281 L 306.234375 291.984375 L 152.613281 308.433594 L 136.164062 154.8125 Z M 289.785156 138.363281 " clip-rule="nonzero"/></clipPath><clipPath id="0751d4104d"><path d="M 289.785156 138.363281 L 306.265625 292.261719 L 152.363281 308.742188 L 135.882812 154.839844 Z M 289.785156 138.363281 " clip-rule="nonzero"/></clipPath><clipPath id="5ef8c15b17"><path d="M 298.023438 215.3125 C 293.472656 172.8125 255.332031 142.050781 212.835938 146.601562 C 170.335938 151.152344 139.574219 189.292969 144.125 231.792969 C 148.675781 274.289062 186.816406 305.054688 229.3125 300.503906 C 271.8125 295.953125 302.574219 257.8125 298.023438 215.3125 Z M 298.023438 215.3125 " clip-rule="nonzero"/></clipPath><clipPath id="bac60f2f95"><path d="M 56 206 L 192 206 L 192 256 L 56 256 Z M 56 206 " clip-rule="nonzero"/></clipPath><clipPath id="849c08fddf"><path d="M 188.882812 200.746094 L 193.894531 247.550781 L 59.144531 261.980469 L 54.132812 215.175781 Z M 188.882812 200.746094 " clip-rule="nonzero"/></clipPath><clipPath id="1794bb999a"><path d="M 191.386719 224.148438 C 190.003906 211.222656 158.742188 203.972656 121.5625 207.953125 C 84.382812 211.9375 55.367188 225.640625 56.75 238.566406 C 58.132812 251.492188 89.394531 258.742188 126.574219 254.761719 C 163.753906 250.78125 192.769531 237.074219 191.386719 224.148438 Z M 191.386719 224.148438 " clip-rule="nonzero"/></clipPath><clipPath id="ecf79f4a25"><path d="M 118 271 L 152 271 L 152 278 L 118 278 Z M 118 271 " clip-rule="nonzero"/></clipPath><clipPath id="01bfc8f7b7"><path d="M 375 0 L 0 0 L 0 375 L 375 375 Z M 143.507812 271.132812 L 122.421875 271.953125 L 122.667969 278.285156 L 143.753906 277.464844 Z M 143.507812 271.132812 " clip-rule="evenodd"/></clipPath><clipPath id="bdf573b6f1"><path d="M 236 278 L 269 278 L 269 289 L 236 289 Z M 236 278 " clip-rule="nonzero"/></clipPath><clipPath id="b53119bc76"><path d="M 375 0 L 0 0 L 0 375 L 375 375 Z M 261.484375 282.191406 L 240.769531 278.160156 L 239.558594 284.382812 L 260.273438 288.414062 Z M 261.484375 282.191406 " clip-rule="evenodd"/></clipPath><clipPath id="4a46d6766f"><path d="M 118 271 L 152 271 L 152 278 L 118 278 Z M 118 271 " clip-rule="nonzero"/></clipPath><clipPath id="c12049db71"><path d="M 375 0 L 0 0 L 0 375 L 375 375 Z M 143.507812 271.132812 L 122.421875 271.953125 L 122.667969 278.285156 L 143.753906 277.464844 Z M 143.507812 271.132812 " clip-rule="evenodd"/></clipPath><clipPath id="3b11b149fc"><path d="M 236 278 L 269 278 L 269 289 L 236 289 Z M 236 278 " clip-rule="nonzero"/></clipPath><clipPath id="69080f76b5"><path d="M 375 0 L 0 0 L 0 375 L 375 375 Z M 261.484375 282.191406 L 240.769531 278.160156 L 239.558594 284.382812 L 260.273438 288.414062 Z M 261.484375 282.191406 " clip-rule="evenodd"/></clipPath></defs><g clip-path="url(#17f132c5f5)"><g clip-path="url(#787db1c45e)"><g clip-path="url(#68cea5fc19)"><path fill="#f97316" d="M 224.863281 89.476562 C 227.277344 83.929688 229.78125 78.414062 232.082031 72.816406 C 233.699219 68.871094 235.039062 64.8125 236.503906 60.800781 C 236.929688 60.945312 237.355469 61.085938 237.78125 61.230469 C 234.605469 71.597656 231.425781 81.964844 228.25 92.332031 C 228.6875 92.5 229.125 92.660156 229.558594 92.824219 C 233.835938 82.808594 238.113281 72.792969 242.390625 62.777344 C 242.628906 62.851562 242.863281 62.921875 243.101562 62.996094 C 239.761719 73.742188 236.421875 84.484375 233.078125 95.230469 C 233.535156 95.40625 233.988281 95.578125 234.441406 95.75 C 239.007812 85.460938 243.578125 75.167969 248.140625 64.875 C 248.378906 64.957031 248.613281 65.042969 248.851562 65.128906 C 245.472656 75.433594 242.09375 85.742188 238.714844 96.046875 C 239.144531 96.222656 239.570312 96.394531 240 96.570312 C 244.453125 86.699219 248.90625 76.824219 253.359375 66.953125 C 253.527344 66.992188 253.691406 67.027344 253.855469 67.0625 C 253.757812 67.6875 253.6875 68.320312 253.550781 68.933594 C 253.410156 69.574219 253.238281 70.207031 253.023438 70.828125 C 249.160156 82.050781 245.332031 93.289062 241.398438 104.492188 C 239.871094 108.847656 237.285156 112.1875 232.375 113.183594 C 231.617188 113.335938 230.738281 114.351562 230.457031 115.160156 C 224.398438 132.351562 218.375 149.554688 212.4375 166.792969 C 209.121094 176.425781 206.0625 186.148438 202.714844 195.769531 C 201.601562 198.972656 199.90625 201.9375 196.070312 202.667969 C 195.367188 202.410156 194.664062 202.152344 193.960938 201.898438 C 191.515625 198.757812 192.175781 195.324219 193.414062 192.085938 C 197.246094 182.042969 201.332031 172.09375 205.21875 162.070312 C 211.601562 145.589844 217.914062 129.085938 224.207031 112.570312 C 224.472656 111.882812 224.605469 110.691406 224.222656 110.28125 C 221.128906 107.003906 221.261719 103 221.394531 98.96875 C 222.550781 95.804688 223.707031 92.640625 224.863281 89.476562 Z M 224.863281 89.476562 " fill-opacity="1" fill-rule="evenodd"/></g></g></g><g clip-path="url(#622b67be8a)"><g clip-path="url(#22066ba4ba)"><g clip-path="url(#f6a468a348)"><path fill="#f97316" d="M 282.949219 77.214844 C 282.820312 79.035156 283.101562 81.011719 282.496094 82.660156 C 274.785156 103.621094 266.707031 124.453125 259.207031 145.488281 C 251.910156 165.960938 245.167969 186.628906 238.183594 207.203125 C 236.949219 210.84375 235.5 214.296875 231.335938 215.519531 C 230.53125 215.226562 229.722656 214.929688 228.914062 214.636719 C 226 211.394531 227.074219 207.796875 228.367188 204.457031 C 232.839844 192.929688 237.515625 181.476562 242.117188 170 C 245.410156 161.789062 248.667969 153.566406 252.039062 145.390625 C 252.730469 143.722656 252.867188 142.289062 251.714844 140.859375 C 249.476562 138.089844 249.691406 135.285156 250.886719 132.015625 C 256.328125 117.175781 261.738281 102.328125 269.988281 88.75 C 272.914062 83.933594 275.945312 79.066406 281.492188 76.683594 C 281.980469 76.859375 282.464844 77.035156 282.949219 77.214844 Z M 282.949219 77.214844 " fill-opacity="1" fill-rule="evenodd"/></g></g></g><g clip-path="url(#6295d3900f)"><g clip-path="url(#b8e8c8038d)"><g clip-path="url(#fda77aab76)"><path fill="#f97316" d="M 159.882812 205.144531 C 157.238281 212.886719 156.121094 220.980469 156.578125 229.1875 C 157.035156 237.394531 159.039062 245.3125 162.527344 252.714844 C 166.140625 260.378906 171.207031 267.152344 177.574219 272.851562 C 183.941406 278.546875 191.238281 282.828125 199.253906 285.570312 C 206.996094 288.21875 215.085938 289.332031 223.292969 288.875 C 231.5 288.421875 239.421875 286.414062 246.820312 282.925781 C 254.507812 279.3125 261.273438 274.261719 266.980469 267.882812 C 272.6875 261.5 276.957031 254.21875 279.699219 246.203125 C 282.347656 238.460938 283.460938 230.367188 283.007812 222.160156 C 282.550781 213.953125 280.542969 206.03125 277.058594 198.632812 C 275.140625 194.566406 272.816406 190.746094 270.101562 187.21875 C 277.972656 178.089844 284.957031 170.902344 290.375 165.601562 C 299.554688 156.621094 307.171875 150.214844 317.226562 138.125 C 323.183594 130.96875 327.621094 124.683594 330.480469 120.417969 C 334.0625 116.417969 333.71875 110.285156 329.71875 106.703125 C 326.421875 103.753906 320.574219 103.992188 316.003906 107.464844 C 312.0625 110.851562 306.109375 116.203125 299.402344 123.320312 C 288.535156 134.875 283.441406 142.84375 275.09375 153.453125 C 270.746094 158.972656 264.761719 166.183594 256.964844 174.425781 C 251.871094 170.714844 246.296875 167.828125 240.308594 165.777344 C 232.566406 163.132812 224.476562 162.015625 216.269531 162.472656 C 208.0625 162.925781 200.140625 164.933594 192.742188 168.421875 C 185.078125 172.035156 178.300781 177.097656 172.605469 183.464844 C 166.90625 189.832031 162.636719 197.117188 159.882812 205.144531 Z M 280.585938 216.476562 C 280.5 215.914062 280.414062 215.367188 280.304688 214.804688 C 280.425781 215.355469 280.511719 215.921875 280.585938 216.476562 Z M 273.566406 195.785156 C 273.355469 195.402344 273.144531 195.023438 272.910156 194.644531 C 273.132812 195.015625 273.363281 195.390625 273.566406 195.785156 Z M 323.445312 113.148438 C 324.902344 114.453125 323.882812 117.988281 321.144531 121.050781 C 318.40625 124.109375 315.003906 125.519531 313.542969 124.210938 C 312.085938 122.90625 313.109375 119.371094 315.847656 116.3125 C 318.585938 113.273438 321.984375 111.84375 323.445312 113.148438 Z M 323.445312 113.148438 " fill-opacity="1" fill-rule="nonzero"/></g></g></g><g clip-path="url(#f857c2e025)"><g clip-path="url(#e0b7ac7309)"><g clip-path="url(#4a4c02d7cf)"><path fill="#f97316" d="M 289.785156 138.363281 L 306.265625 292.265625 L 152.359375 308.746094 L 135.878906 154.839844 Z M 289.785156 138.363281 " fill-opacity="1" fill-rule="nonzero"/></g></g></g><g clip-path="url(#0dad56193e)"><g clip-path="url(#a02e7a4ff9)"><g clip-path="url(#0751d4104d)"><g clip-path="url(#5ef8c15b17)"><path stroke-linecap="butt" transform="matrix(0.0798527, 0.745737, -0.745737, 0.0798527, 289.785307, 138.361616)" fill="none" stroke-linejoin="miter" d="M 103.187485 0.00223933 C 46.196879 0.00214132 -0.0000727849 46.200308 0.000383742 103.185735 C 0.000285736 160.17634 46.198452 206.373292 103.189058 206.37339 C 160.174484 206.372934 206.376615 160.175322 206.376159 103.189895 C 206.376257 46.199289 160.17809 0.00233734 103.187485 0.00223933 Z M 103.187485 0.00223933 " stroke="#ffbd59" stroke-width="10" stroke-opacity="1" stroke-miterlimit="4"/></g></g></g></g><g clip-path="url(#bac60f2f95)"><g clip-path="url(#849c08fddf)"><g clip-path="url(#1794bb999a)"><path fill="#f97316" d="M 188.882812 200.746094 L 193.894531 247.550781 L 59.328125 261.960938 L 54.316406 215.15625 Z M 188.882812 200.746094 " fill-opacity="1" fill-rule="nonzero"/></g></g></g><path fill="#f97316" d="M 53.808594 222.066406 L 94.914062 216.902344 L 95.527344 221.769531 L 54.421875 226.929688 Z M 53.808594 222.066406 " fill-opacity="1" fill-rule="nonzero"/><path stroke-linecap="butt" transform="matrix(1.621932, -0.203682, 0.203682, 1.621932, 47.088234, 168.541571)" fill="none" stroke-linejoin="miter" d="M 0.667539 -1.165264 L 24.664979 -1.166977 L 24.66326 7.035792 C 24.132409 6.525984 23.516422 6.137946 22.817671 5.871976 C 22.117145 5.600966 21.422496 5.417396 20.734024 5.318896 C 20.045551 5.220396 19.420478 5.173208 18.861771 5.172889 L 16.364335 5.172353 L 16.363806 26.867088 C 16.363928 27.690773 16.463942 28.505328 16.664144 29.30838 C 16.865239 30.104319 17.153311 30.667933 17.52836 30.999222 L 7.697187 31.00013 C 8.078245 30.669866 8.366668 30.099171 8.569271 29.29131 C 8.770099 28.478409 8.87075 27.657745 8.870627 26.834059 L 8.869359 5.172816 L 6.468252 5.172335 C 5.931181 5.172325 5.313166 5.222359 4.614504 5.320068 C 3.913471 5.417478 3.218614 5.599958 2.531708 5.872547 C 1.840953 6.137427 1.221262 6.526835 0.668489 7.035432 Z M 0.667539 -1.165264 " stroke="#f97316" stroke-width="8.749991" stroke-opacity="1" stroke-miterlimit="4"/><path fill="#f97316" d="M 93.507812 217.097656 L 130.941406 214.898438 L 131.226562 219.796875 L 93.796875 221.992188 Z M 93.507812 217.097656 " fill-opacity="1" fill-rule="nonzero"/><path stroke-linecap="butt" transform="matrix(1.631862, -0.0958031, 0.0958031, 1.631862, 90.347687, 163.246235)" fill="none" stroke-linejoin="miter" d="M 0.332835 10.966019 C 1.375156 9.725017 2.627575 8.778812 4.092057 8.134698 C 5.563836 7.488619 7.241648 7.165822 9.130262 7.166586 C 10.729249 7.167104 12.258519 7.376571 13.710496 7.801724 C 15.169769 8.224912 16.46587 8.858744 17.601045 9.705746 C 18.734254 10.545452 19.633147 11.584444 20.29295 12.822443 C 20.960331 14.053705 21.294887 15.490439 21.294095 17.134891 L 21.295989 23.830288 C 21.295219 24.455008 21.349596 25.078179 21.45898 25.702185 C 21.57103 26.32156 21.811323 26.835959 22.174809 27.249871 C 22.543205 27.661678 23.129641 27.866062 23.93145 27.867654 L 23.931469 28.030429 C 23.287001 28.366017 22.607036 28.735427 21.896484 29.136553 C 21.186212 29.532909 20.503441 29.909335 19.845646 30.268078 C 19.190656 30.619804 18.613258 30.913849 18.113733 31.14544 C 17.614068 31.379417 17.264957 31.495365 17.063873 31.495528 C 16.510858 31.496574 16.038642 31.26299 15.647086 30.797161 C 15.258055 30.329086 14.961905 29.746778 14.761162 29.04799 C 14.56533 28.347096 14.468989 27.664012 14.467509 26.996073 L 14.468926 23.465392 C 14.044384 24.132258 13.570316 24.868029 13.044476 25.670179 C 12.523686 26.467838 12.023242 27.245148 11.547773 28.004774 C 11.070199 28.759489 10.664456 29.391553 10.335316 29.901246 C 10.176079 30.167178 9.763847 30.502037 9.096374 30.903299 C 8.429322 31.297405 7.639744 31.495211 6.730027 31.49686 C 5.351208 31.4973 4.228026 31.220711 3.360482 30.667094 C 2.497709 30.113758 1.870799 29.375588 1.482137 28.452725 C 1.09586 27.530002 0.902376 26.503698 0.90435 25.369182 C 0.904074 24.191446 1.174071 23.098996 1.716866 22.089587 C 2.259941 21.075406 2.996818 20.185108 3.929741 19.42122 C 4.863084 18.650175 5.917968 18.051433 7.094531 17.622609 C 8.278531 17.189434 9.512091 16.972211 10.797594 16.97108 C 12.111724 16.971631 13.278121 17.205275 14.296783 17.672014 C 14.010091 16.357777 13.414579 15.329414 12.51502 14.587207 C 11.61546 13.844999 10.507423 13.47355 9.195678 13.47314 C 7.996473 13.472155 6.925409 13.69413 5.980101 14.138925 C 5.037458 14.579088 4.252148 15.275043 3.62866 16.231841 C 3.098538 15.190561 2.577832 14.274308 2.066262 13.487854 C 1.557358 12.696768 0.979549 11.856157 0.332835 10.966019 Z M 7.999513 22.798338 C 7.999154 23.334514 8.175598 23.835589 8.528707 24.303949 C 8.886726 24.770202 9.509789 25.003068 10.400282 25.002684 C 11.17585 25.002735 11.922624 24.759328 12.645515 24.270358 C 13.371071 23.776756 13.979998 23.108746 14.467385 22.268432 L 14.467042 19.297783 C 14.467584 19.125466 14.461529 18.943186 14.451123 18.75347 C 14.440717 18.563754 14.422175 18.390316 14.395495 18.233157 C 14.198468 18.123446 13.985308 18.043907 13.751522 17.989489 C 13.518157 17.927914 13.266133 17.898755 12.995589 17.899629 C 12.062016 17.899877 11.218001 18.168693 10.463684 18.703694 C 9.709506 19.236308 9.111662 19.878638 8.665239 20.632788 C 8.221202 21.387079 7.999293 22.108929 7.999513 22.798338 Z M 7.999513 22.798338 " stroke="#f97316" stroke-width="8.749991" stroke-opacity="1" stroke-miterlimit="4"/><path fill="#f97316" d="M 129.683594 215.007812 L 162.503906 215.019531 L 162.503906 219.921875 L 129.683594 219.910156 Z M 129.683594 215.007812 " fill-opacity="1" fill-rule="nonzero"/><path stroke-linecap="butt" transform="matrix(1.634671, 0.000673486, -0.000673486, 1.634671, 129.70677, 161.061786)" fill="none" stroke-linejoin="miter" d="M 0.668102 14.603154 C 0.66758 13.334264 0.944322 12.232533 1.498331 11.300352 C 2.057118 10.365778 2.807143 9.59601 3.750794 8.988657 C 4.694443 8.376525 5.738521 7.919676 6.883028 7.622891 C 8.027533 7.318938 9.200775 7.165518 10.400366 7.165024 C 11.439854 7.166985 12.522393 7.262124 13.645594 7.450442 C 14.768796 7.641149 15.834676 7.903568 16.843236 8.24009 C 17.858963 8.571829 18.709833 8.970546 19.398237 9.436239 C 19.197737 9.990714 18.970999 10.662292 18.715636 11.453363 C 18.460271 12.242044 18.221642 13.052225 17.999751 13.886295 C 17.777858 14.717976 17.587005 15.487513 17.429583 16.197297 C 17.142701 15.889153 16.686149 15.564353 16.062316 15.222893 C 15.44326 14.874263 14.733409 14.551956 13.930372 14.253584 C 13.134502 13.95043 12.312369 13.699858 11.466361 13.504257 C 10.617962 13.303879 9.829345 13.203839 9.09812 13.204141 C 7.963049 13.204608 7.396854 13.558506 7.397147 14.270614 C 7.3973 14.643395 7.684186 14.961097 8.260193 15.221329 C 8.838587 15.47678 9.586645 15.732162 10.497197 15.987476 C 11.407749 16.242791 12.373283 16.548265 13.3938 16.906288 C 14.419094 17.25953 15.38708 17.715549 16.297757 18.274346 C 17.21082 18.825973 17.954285 19.532996 18.528147 20.388245 C 19.109177 21.241101 19.398758 22.301975 19.399281 23.570865 C 19.399793 24.813469 19.113498 25.929542 18.545177 26.92386 C 17.981633 27.911006 17.222075 28.742909 16.266505 29.421956 C 15.310932 30.093834 14.238204 30.610434 13.043539 30.966981 C 11.856041 31.321134 10.639795 31.496078 9.39958 31.496589 C 7.640817 31.497313 6.085085 31.287667 4.727607 30.870043 C 3.377295 30.447635 2.02451 29.822111 0.666864 28.99825 C 1.020117 27.999242 1.327942 26.940512 1.595118 25.817278 C 1.867072 24.694043 2.112757 23.611442 2.334563 22.569474 C 2.645314 22.813088 3.187895 23.142633 3.962302 23.553329 C 4.743878 23.961633 5.666423 24.326865 6.72994 24.653805 C 7.798234 24.973575 8.909475 25.133222 10.066053 25.132745 C 10.395821 25.132609 10.763814 25.110951 11.165253 25.067773 C 11.566692 25.024594 11.910757 24.924088 12.197447 24.766255 C 12.484137 24.608421 12.629803 24.36462 12.629667 24.034852 C 12.629493 23.611888 12.337819 23.272682 11.759425 23.01723 C 11.18342 22.761778 10.440147 22.518342 9.529604 22.284534 C 8.62384 22.050724 7.663097 21.773924 6.647375 21.454133 C 5.63882 21.129559 4.678012 20.695044 3.767342 20.152974 C 2.85667 19.606125 2.11081 18.884766 1.529762 17.988897 C 0.955881 17.088245 0.666272 15.960461 0.668102 14.603154 Z M 0.668102 14.603154 " stroke="#f97316" stroke-width="8.749991" stroke-opacity="1" stroke-miterlimit="4"/><path fill="#f97316" d="M 161.433594 215.078125 L 187.453125 216.375 L 187.210938 221.273438 L 161.191406 219.972656 Z M 161.433594 215.078125 " fill-opacity="1" fill-rule="nonzero"/><path stroke-linecap="butt" transform="matrix(1.632641, 0.0814568, -0.0814568, 1.632641, 164.122919, 161.199232)" fill="none" stroke-linejoin="miter" d="M -0.00118225 14.001524 L 0.00116616 7.670597 C 0.624347 7.405031 1.328089 7.027778 2.114779 6.53872 C 2.908509 6.046918 3.712749 5.478028 4.532629 4.838973 C 5.356926 4.19252 6.1249 3.520166 6.834165 2.822029 C 7.545698 2.121387 8.133602 1.436484 8.600381 0.769587 L 8.76315 0.771036 L 8.762889 7.671297 L 13.801687 7.67112 L 13.801726 14.001928 L 8.762927 14.002104 L 8.764861 21.56979 C 8.763507 23.077193 8.986191 24.087721 9.430648 24.60388 C 9.874867 25.115266 10.509568 25.368318 11.335107 25.370197 C 11.844655 25.3687 12.299083 25.269464 12.693378 25.067954 C 13.094951 24.868474 13.45429 24.589753 13.769365 24.239069 C 13.876538 25.23622 14.053881 26.201158 14.296622 27.134123 C 14.54175 28.066968 14.753713 28.91055 14.932511 29.664867 C 14.377679 30.197387 13.600422 30.63573 12.596204 30.984908 C 11.59879 31.326568 10.564043 31.495432 9.496975 31.496034 C 7.011048 31.495648 5.134629 30.763822 3.865212 29.298288 C 2.600686 27.834902 1.96821 25.756188 1.970407 23.0668 L 1.970304 14.001258 Z M -0.00118225 14.001524 " stroke="#f97316" stroke-width="8.749991" stroke-opacity="1" stroke-miterlimit="4"/><path fill="#f97316" d="M 186.355469 216.160156 L 222.183594 219.828125 L 221.683594 224.707031 L 185.855469 221.039062 Z M 186.355469 216.160156 " fill-opacity="1" fill-rule="nonzero"/><path stroke-linecap="butt" transform="matrix(1.626177, 0.166434, -0.166434, 1.626177, 191.847957, 162.49726)" fill="none" stroke-linejoin="miter" d="M 12.531476 31.495876 C 10.578614 31.49637 8.871582 31.176245 7.412757 30.535258 C 5.958444 29.891407 4.760609 29.007519 3.816877 27.883836 C 2.873145 26.760154 2.166556 25.465672 1.69973 24.002525 C 1.235037 22.536758 1.001253 20.980099 1.000754 19.332304 C 1.000499 17.686887 1.245131 16.13411 1.734165 14.669218 C 2.220821 13.20457 2.960395 11.911009 3.945509 10.786888 C 4.940376 9.664172 6.173334 8.778917 7.649624 8.135392 C 9.125671 7.489489 10.86283 7.165168 12.863966 7.16694 C 14.55266 7.16706 16.027212 7.515782 17.292622 8.214999 C 18.560652 8.916349 19.546428 9.817136 20.245196 10.917848 C 20.946341 12.018316 21.295904 13.15717 21.293883 14.334409 C 21.294801 15.44649 20.999375 16.526447 20.407604 17.574278 C 19.822235 18.614248 18.857172 19.464879 17.511927 20.121415 C 16.170951 20.772711 14.356991 21.097685 12.06767 21.096583 L 8.169077 21.096842 C 8.43671 22.280112 8.966007 23.203598 9.764586 23.871323 C 10.567434 24.533807 11.59088 24.863842 12.83279 24.864049 C 13.656687 24.863799 14.362738 24.697855 14.948807 24.368837 C 15.538902 24.032201 16.028068 23.648243 16.411796 23.219829 C 16.80217 22.78593 17.077388 22.423869 17.23483 22.131513 C 17.787058 22.997403 18.442423 23.838325 19.195927 24.652388 C 19.956077 25.460967 20.680345 26.177134 21.368732 26.800888 C 20.386998 28.357042 19.101681 29.528702 17.510404 30.316112 C 15.926258 31.102792 14.2682 31.495884 12.531476 31.495876 Z M 8.095708 20.732024 C 9.166201 20.535987 10.199484 20.187621 11.195801 19.689304 C 12.201141 19.185259 13.027855 18.555369 13.678565 17.801769 C 14.33403 17.047681 14.662078 16.192586 14.662954 15.23886 C 14.66311 14.794455 14.508019 14.358732 14.200542 13.936203 C 13.890689 13.513917 13.376599 13.302301 12.660649 13.30111 C 12.021743 13.301643 11.338903 13.530069 10.611884 13.98401 C 9.889862 14.439841 9.274643 15.117746 8.764092 16.020345 C 8.253298 16.920567 7.998584 18.02278 7.998058 19.331982 C 7.998013 19.824418 8.031437 20.29181 8.095708 20.732024 Z M 8.095708 20.732024 " stroke="#f97316" stroke-width="8.749991" stroke-opacity="1" stroke-miterlimit="4"/><path fill="#f97316" d="M 221.230469 219.925781 L 237.402344 222.304688 L 236.6875 227.15625 L 220.515625 224.777344 Z M 221.230469 219.925781 " fill-opacity="1" fill-rule="nonzero"/><path fill="#ffffff" d="M 53.808594 222.066406 L 94.914062 216.902344 L 95.527344 221.769531 L 54.421875 226.929688 Z M 53.808594 222.066406 " fill-opacity="1" fill-rule="nonzero"/><g fill="#ffffff" fill-opacity="1"><g transform="translate(53.402376, 218.821473)"><g><path d="M -5.46875 -52.3125 L 33.453125 -57.1875 L 35.125 -43.875 C 34.164062 -44.601562 33.085938 -45.113281 31.890625 -45.40625 C 30.691406 -45.695312 29.523438 -45.851562 28.390625 -45.875 C 27.253906 -45.894531 26.238281 -45.847656 25.34375 -45.734375 L 21.28125 -45.21875 L 25.703125 -10.03125 C 25.867188 -8.695312 26.195312 -7.398438 26.6875 -6.140625 C 27.175781 -4.890625 27.757812 -4.03125 28.4375 -3.5625 L 12.484375 -1.5625 C 13.035156 -2.1875 13.390625 -3.175781 13.546875 -4.53125 C 13.710938 -5.894531 13.710938 -7.242188 13.546875 -8.578125 L 9.125 -43.703125 L 5.21875 -43.203125 C 4.351562 -43.097656 3.363281 -42.890625 2.25 -42.578125 C 1.132812 -42.273438 0.0507812 -41.835938 -1 -41.265625 C -2.0625 -40.703125 -2.992188 -39.945312 -3.796875 -39 Z M -5.46875 -52.3125 "/></g></g></g><path fill="#ffffff" d="M 93.507812 217.097656 L 130.941406 214.898438 L 131.226562 219.796875 L 93.796875 221.992188 Z M 93.507812 217.097656 " fill-opacity="1" fill-rule="nonzero"/><g fill="#ffffff" fill-opacity="1"><g transform="translate(93.317582, 213.833951)"><g><path d="M -1.375 -32.71875 C 0.21875 -34.851562 2.175781 -36.515625 4.5 -37.703125 C 6.832031 -38.898438 9.535156 -39.585938 12.609375 -39.765625 C 15.234375 -39.921875 17.75 -39.722656 20.15625 -39.171875 C 22.570312 -38.617188 24.742188 -37.707031 26.671875 -36.4375 C 28.609375 -35.164062 30.175781 -33.554688 31.375 -31.609375 C 32.582031 -29.671875 33.265625 -27.359375 33.421875 -24.671875 L 34.0625 -13.75 C 34.125 -12.726562 34.273438 -11.710938 34.515625 -10.703125 C 34.753906 -9.703125 35.191406 -8.878906 35.828125 -8.234375 C 36.472656 -7.597656 37.453125 -7.320312 38.765625 -7.40625 L 38.78125 -7.125 C 37.757812 -6.53125 36.679688 -5.875 35.546875 -5.15625 C 34.421875 -4.4375 33.34375 -3.753906 32.3125 -3.109375 C 31.289062 -2.460938 30.378906 -1.921875 29.578125 -1.484375 C 28.785156 -1.054688 28.222656 -0.835938 27.890625 -0.828125 C 26.984375 -0.765625 26.1875 -1.09375 25.5 -1.8125 C 24.820312 -2.539062 24.285156 -3.46875 23.890625 -4.59375 C 23.503906 -5.71875 23.28125 -6.820312 23.21875 -7.90625 L 22.875 -13.6875 C 22.257812 -12.550781 21.5625 -11.300781 20.78125 -9.9375 C 20.007812 -8.582031 19.269531 -7.265625 18.5625 -5.984375 C 17.851562 -4.710938 17.25 -3.644531 16.75 -2.78125 C 16.53125 -2.332031 15.894531 -1.75 14.84375 -1.03125 C 13.789062 -0.320312 12.519531 0.078125 11.03125 0.171875 C 8.78125 0.296875 6.921875 -0.0507812 5.453125 -0.875 C 3.992188 -1.695312 2.898438 -2.835938 2.171875 -4.296875 C 1.453125 -5.765625 1.035156 -7.425781 0.921875 -9.28125 C 0.816406 -11.207031 1.160156 -13.019531 1.953125 -14.71875 C 2.742188 -16.414062 3.863281 -17.9375 5.3125 -19.28125 C 6.757812 -20.625 8.421875 -21.703125 10.296875 -22.515625 C 12.179688 -23.328125 14.175781 -23.796875 16.28125 -23.921875 C 18.425781 -24.046875 20.347656 -23.785156 22.046875 -23.140625 C 21.453125 -25.242188 20.382812 -26.859375 18.84375 -27.984375 C 17.3125 -29.109375 15.472656 -29.609375 13.328125 -29.484375 C 11.378906 -29.367188 9.65625 -28.90625 8.15625 -28.09375 C 6.65625 -27.28125 5.4375 -26.0625 4.5 -24.4375 C 3.53125 -26.09375 2.59375 -27.539062 1.6875 -28.78125 C 0.78125 -30.019531 -0.238281 -31.332031 -1.375 -32.71875 Z M 12.28125 -14.15625 C 12.332031 -13.28125 12.664062 -12.476562 13.28125 -11.75 C 13.894531 -11.03125 14.929688 -10.710938 16.390625 -10.796875 C 17.660156 -10.867188 18.863281 -11.335938 20 -12.203125 C 21.132812 -13.066406 22.050781 -14.210938 22.75 -15.640625 L 22.46875 -20.484375 C 22.457031 -20.773438 22.429688 -21.070312 22.390625 -21.375 C 22.359375 -21.675781 22.316406 -21.957031 22.265625 -22.21875 C 21.929688 -22.375 21.570312 -22.484375 21.1875 -22.546875 C 20.8125 -22.617188 20.40625 -22.644531 19.96875 -22.625 C 18.4375 -22.53125 17.078125 -22.007812 15.890625 -21.0625 C 14.710938 -20.125 13.796875 -19.015625 13.140625 -17.734375 C 12.492188 -16.460938 12.207031 -15.269531 12.28125 -14.15625 Z M 12.28125 -14.15625 "/></g></g></g><path fill="#ffffff" d="M 129.683594 215.007812 L 162.503906 215.019531 L 162.503906 219.921875 L 129.683594 219.910156 Z M 129.683594 215.007812 " fill-opacity="1" fill-rule="nonzero"/><g fill="#ffffff" fill-opacity="1"><g transform="translate(129.685892, 211.736598)"><g><path d="M 1.109375 -26.8125 C 1.109375 -28.875 1.5625 -30.664062 2.46875 -32.1875 C 3.375 -33.71875 4.597656 -34.984375 6.140625 -35.984375 C 7.679688 -36.984375 9.390625 -37.726562 11.265625 -38.21875 C 13.140625 -38.707031 15.054688 -38.953125 17.015625 -38.953125 C 18.722656 -38.941406 20.492188 -38.78125 22.328125 -38.46875 C 24.160156 -38.164062 25.898438 -37.738281 27.546875 -37.1875 C 29.203125 -36.644531 30.59375 -35.992188 31.71875 -35.234375 C 31.394531 -34.328125 31.023438 -33.226562 30.609375 -31.9375 C 30.191406 -30.644531 29.800781 -29.316406 29.4375 -27.953125 C 29.070312 -26.597656 28.765625 -25.335938 28.515625 -24.171875 C 28.035156 -24.679688 27.285156 -25.21875 26.265625 -25.78125 C 25.253906 -26.34375 24.09375 -26.867188 22.78125 -27.359375 C 21.476562 -27.847656 20.132812 -28.257812 18.75 -28.59375 C 17.375 -28.925781 16.085938 -29.09375 14.890625 -29.09375 C 13.035156 -29.09375 12.109375 -28.507812 12.109375 -27.34375 C 12.109375 -26.726562 12.578125 -26.210938 13.515625 -25.796875 C 14.460938 -25.378906 15.679688 -24.957031 17.171875 -24.53125 C 18.660156 -24.113281 20.238281 -23.613281 21.90625 -23.03125 C 23.582031 -22.445312 25.164062 -21.703125 26.65625 -20.796875 C 28.144531 -19.890625 29.359375 -18.734375 30.296875 -17.328125 C 31.234375 -15.929688 31.703125 -14.203125 31.703125 -12.140625 C 31.703125 -10.097656 31.238281 -8.269531 30.3125 -6.65625 C 29.394531 -5.039062 28.15625 -3.675781 26.59375 -2.5625 C 25.03125 -1.457031 23.273438 -0.617188 21.328125 -0.046875 C 19.390625 0.523438 17.398438 0.8125 15.359375 0.8125 C 12.492188 0.8125 9.953125 0.46875 7.734375 -0.21875 C 5.515625 -0.90625 3.300781 -1.921875 1.09375 -3.265625 C 1.675781 -4.898438 2.179688 -6.632812 2.609375 -8.46875 C 3.046875 -10.300781 3.445312 -12.070312 3.8125 -13.78125 C 4.320312 -13.382812 5.210938 -12.847656 6.484375 -12.171875 C 7.753906 -11.503906 9.257812 -10.90625 11 -10.375 C 12.75 -9.851562 14.566406 -9.59375 16.453125 -9.59375 C 16.992188 -9.59375 17.59375 -9.625 18.25 -9.6875 C 18.90625 -9.757812 19.46875 -9.921875 19.9375 -10.171875 C 20.414062 -10.421875 20.65625 -10.820312 20.65625 -11.375 C 20.65625 -12.0625 20.179688 -12.613281 19.234375 -13.03125 C 18.285156 -13.457031 17.066406 -13.859375 15.578125 -14.234375 C 14.085938 -14.617188 12.515625 -15.078125 10.859375 -15.609375 C 9.210938 -16.140625 7.644531 -16.847656 6.15625 -17.734375 C 4.675781 -18.617188 3.460938 -19.796875 2.515625 -21.265625 C 1.578125 -22.742188 1.109375 -24.59375 1.109375 -26.8125 Z M 1.109375 -26.8125 "/></g></g></g><path fill="#ffffff" d="M 161.433594 215.078125 L 187.453125 216.375 L 187.210938 221.273438 L 161.191406 219.972656 Z M 161.433594 215.078125 " fill-opacity="1" fill-rule="nonzero"/><g fill="#ffffff" fill-opacity="1"><g transform="translate(161.597757, 211.811093)"><g><path d="M 1.390625 -27.75 L 1.90625 -38.09375 C 2.945312 -38.476562 4.128906 -39.035156 5.453125 -39.765625 C 6.773438 -40.503906 8.128906 -41.363281 9.515625 -42.34375 C 10.910156 -43.320312 12.21875 -44.351562 13.4375 -45.4375 C 14.65625 -46.53125 15.679688 -47.601562 16.515625 -48.65625 L 16.78125 -48.640625 L 16.21875 -37.375 L 24.4375 -36.96875 L 23.921875 -26.625 L 15.703125 -27.03125 L 15.078125 -14.6875 C 14.953125 -12.21875 15.234375 -10.546875 15.921875 -9.671875 C 16.609375 -8.796875 17.625 -8.328125 18.96875 -8.265625 C 19.789062 -8.222656 20.535156 -8.347656 21.203125 -8.640625 C 21.867188 -8.941406 22.472656 -9.367188 23.015625 -9.921875 C 23.117188 -8.273438 23.332031 -6.679688 23.65625 -5.140625 C 23.976562 -3.609375 24.253906 -2.210938 24.484375 -0.953125 C 23.535156 -0.140625 22.226562 0.503906 20.5625 0.984375 C 18.90625 1.472656 17.207031 1.675781 15.46875 1.59375 C 11.394531 1.382812 8.382812 0.0351562 6.4375 -2.453125 C 4.5 -4.953125 3.640625 -8.398438 3.859375 -12.796875 L 4.609375 -27.59375 Z M 1.390625 -27.75 "/></g></g></g><path fill="#ffffff" d="M 186.355469 216.160156 L 222.183594 219.828125 L 221.683594 224.707031 L 185.855469 221.039062 Z M 186.355469 216.160156 " fill-opacity="1" fill-rule="nonzero"/><g fill="#ffffff" fill-opacity="1"><g transform="translate(186.688511, 212.908738)"><g><path d="M 20.296875 2.890625 C 17.117188 2.566406 14.394531 1.757812 12.125 0.46875 C 9.863281 -0.8125 8.0625 -2.441406 6.71875 -4.421875 C 5.375 -6.398438 4.441406 -8.617188 3.921875 -11.078125 C 3.410156 -13.546875 3.289062 -16.117188 3.5625 -18.796875 C 3.832031 -21.460938 4.488281 -23.953125 5.53125 -26.265625 C 6.570312 -28.578125 7.988281 -30.5625 9.78125 -32.21875 C 11.570312 -33.875 13.722656 -35.101562 16.234375 -35.90625 C 18.753906 -36.707031 21.640625 -36.941406 24.890625 -36.609375 C 27.640625 -36.328125 29.988281 -35.507812 31.9375 -34.15625 C 33.882812 -32.8125 35.328125 -31.1875 36.265625 -29.28125 C 37.210938 -27.375 37.585938 -25.460938 37.390625 -23.546875 C 37.210938 -21.742188 36.554688 -20.039062 35.421875 -18.4375 C 34.285156 -16.84375 32.570312 -15.625 30.28125 -14.78125 C 27.988281 -13.945312 24.976562 -13.722656 21.25 -14.109375 L 14.921875 -14.75 C 15.160156 -12.789062 15.875 -11.203125 17.0625 -9.984375 C 18.25 -8.765625 19.851562 -8.050781 21.875 -7.84375 C 23.21875 -7.707031 24.394531 -7.859375 25.40625 -8.296875 C 26.414062 -8.734375 27.273438 -9.269531 27.984375 -9.90625 C 28.691406 -10.550781 29.195312 -11.097656 29.5 -11.546875 C 30.257812 -10.054688 31.1875 -8.582031 32.28125 -7.125 C 33.375 -5.675781 34.425781 -4.390625 35.4375 -3.265625 C 33.59375 -0.898438 31.3125 0.785156 28.59375 1.796875 C 25.882812 2.816406 23.117188 3.179688 20.296875 2.890625 Z M 14.875 -15.34375 C 16.644531 -15.488281 18.382812 -15.882812 20.09375 -16.53125 C 21.800781 -17.175781 23.25 -18.054688 24.4375 -19.171875 C 25.632812 -20.296875 26.3125 -21.632812 26.46875 -23.1875 C 26.539062 -23.914062 26.363281 -24.648438 25.9375 -25.390625 C 25.507812 -26.128906 24.710938 -26.554688 23.546875 -26.671875 C 22.503906 -26.773438 21.351562 -26.515625 20.09375 -25.890625 C 18.84375 -25.273438 17.726562 -24.28125 16.75 -22.90625 C 15.769531 -21.53125 15.171875 -19.773438 14.953125 -17.640625 C 14.867188 -16.847656 14.84375 -16.082031 14.875 -15.34375 Z M 14.875 -15.34375 "/></g></g></g><path fill="#ffffff" d="M 221.230469 219.925781 L 237.402344 222.304688 L 236.6875 227.15625 L 220.515625 224.777344 Z M 221.230469 219.925781 " fill-opacity="1" fill-rule="nonzero"/><g fill="#ffffff" fill-opacity="1"><g transform="translate(221.704937, 216.692423)"><g/></g></g><path fill="#f97316" d="M 40.726562 284.09375 L 87.457031 275.699219 L 88.234375 280.015625 L 41.5 288.410156 Z M 40.726562 284.09375 " fill-opacity="1" fill-rule="nonzero"/><path stroke-linecap="butt" transform="matrix(1.43932, -0.258504, 0.258504, 1.43932, 32.194968, 236.594749)" fill="none" stroke-linejoin="miter" d="M 1.163232 14.936863 C 1.164294 12.649189 1.4557 10.497794 2.042706 8.483621 C 2.634499 6.473023 3.5355 4.705221 4.744291 3.188104 C 5.959757 1.664043 7.522376 0.473728 9.431202 -0.377585 C 11.340973 -1.234156 13.608133 -1.662869 16.232682 -1.663724 C 18.876108 -1.663903 21.146544 -1.234418 23.044462 -0.377897 C 24.948583 0.474309 26.504601 1.662948 27.715618 3.185861 C 28.924477 4.705673 29.823266 6.471045 30.408883 8.484133 C 30.999758 10.498167 31.294665 12.64902 31.296231 14.937167 C 31.294697 17.22747 30.998978 19.372663 30.409074 21.372745 C 29.822271 23.37067 28.925316 25.131057 27.715581 26.653432 C 26.506317 28.173179 24.949429 29.361809 23.044916 30.219325 C 21.147079 31.069897 18.875132 31.495036 16.234336 31.495688 C 13.607158 31.496071 11.341508 31.070159 9.431657 30.219637 C 7.520593 29.360756 5.958844 28.173802 4.744254 26.655675 C 3.53371 25.130132 2.633976 23.370019 2.042425 21.374862 C 1.457548 19.372762 1.164327 17.227639 1.163232 14.936863 Z M 8.664817 14.90547 C 8.66495 16.74827 8.927345 18.445481 9.447688 19.990902 C 9.968976 21.531065 10.785375 22.757846 11.897359 23.668616 C 13.009343 24.579387 14.444566 25.035274 16.2004 25.035805 C 17.975583 25.034384 19.422233 24.580434 20.546553 23.669642 C 21.668716 22.755748 22.491319 21.530227 23.012207 19.989977 C 23.539296 18.445414 23.800382 16.749946 23.800721 14.904516 C 23.802209 13.037582 23.537657 11.337269 23.012796 9.801892 C 22.490564 8.266988 21.667961 7.044521 20.545461 6.131862 C 19.422489 5.221832 17.973647 4.766213 16.201566 4.765477 C 14.443103 4.764473 13.009599 5.220784 11.895795 6.133466 C 10.785093 7.04399 9.96822 8.267826 9.448277 9.802817 C 8.925705 11.337336 8.666305 13.038535 8.664817 14.90547 Z M 8.664817 14.90547 " stroke="#f97316" stroke-width="8.749991" stroke-opacity="1" stroke-miterlimit="4"/><path fill="#f97316" d="M 86.058594 276.152344 L 120.066406 272.707031 L 120.511719 277.070312 L 86.5 280.519531 Z M 86.058594 276.152344 " fill-opacity="1" fill-rule="nonzero"/><path stroke-linecap="butt" transform="matrix(1.454892, -0.14749, 0.14749, 1.454892, 81.192083, 228.141679)" fill="none" stroke-linejoin="miter" d="M 8.494101 31.49515 C 7.18904 31.497094 6.060969 31.130355 5.117592 30.398397 C 4.174215 29.666439 3.397015 28.698946 2.782797 27.500964 C 2.168578 26.302982 1.718774 24.992792 1.433385 23.570394 C 1.145608 22.145069 1.00161 20.731635 1.001392 19.330092 C 0.9999 17.888146 1.177814 16.450963 1.529818 15.018003 C 1.887138 13.585583 2.4548 12.276513 3.230417 11.087865 C 4.011349 9.899757 5.028514 8.950389 6.281913 8.239762 C 7.541166 7.524358 9.067589 7.166283 10.86384 7.165805 C 11.688073 7.166129 12.409286 7.282201 13.027208 7.516677 C 13.650716 7.749035 14.207673 8.055193 14.695424 8.434882 L 14.695503 5.838586 C 14.69664 5.589005 14.673234 5.210745 14.630868 4.701687 C 14.586114 4.189703 14.465367 3.659276 14.263852 3.10455 C 14.062606 2.547168 13.74058 2.068828 13.297237 1.674846 C 12.852045 1.272622 12.23062 1.072695 11.433232 1.072406 L 11.431871 0.900434 C 12.252442 0.857429 13.132166 0.707655 14.076356 0.45165 C 15.025593 0.198841 15.962961 -0.122293 16.885265 -0.506708 C 17.808109 -0.896437 18.673293 -1.300067 19.48028 -1.712281 C 20.295239 -2.123687 20.977246 -2.494873 21.531615 -2.8253 L 21.530748 26.899211 C 21.530423 27.723444 21.631123 28.53107 21.83258 29.324745 C 22.032186 30.110179 22.319284 30.66821 22.693872 30.998839 L 14.695535 30.998847 L 14.695604 23.529444 L 12.099527 30.201379 C 11.699494 30.598465 11.19246 30.912212 10.578154 31.145276 C 9.97182 31.379149 9.275274 31.496479 8.494101 31.49515 Z M 7.762692 19.932289 C 7.763255 23.422724 8.808118 25.16644 10.89701 25.166095 C 11.85547 25.166602 12.63489 24.893894 13.232073 24.353014 C 13.832722 23.804431 14.320281 23.153097 14.694751 22.399012 L 14.695973 13.302673 C 14.164331 13.144066 13.57623 13.065653 12.929284 13.064506 C 11.796195 13.06509 10.846849 13.398435 10.080977 14.067198 C 9.318032 14.733574 8.739822 15.59051 8.349004 16.638278 C 7.958725 17.680731 7.761606 18.777669 7.762692 19.932289 Z M 7.762692 19.932289 " stroke="#f97316" stroke-width="8.749991" stroke-opacity="1" stroke-miterlimit="4"/><g clip-path="url(#ecf79f4a25)"><g clip-path="url(#01bfc8f7b7)"><path fill="#f97316" d="M 118.882812 272.820312 L 150.9375 271.574219 L 151.109375 275.960938 L 119.050781 277.203125 Z M 118.882812 272.820312 " fill-opacity="1" fill-rule="nonzero"/></g></g><path stroke-linecap="butt" transform="matrix(1.461248, -0.0567527, 0.0567527, 1.461248, 117.009606, 224.599922)" fill="none" stroke-linejoin="miter" d="M 7.331777 31.033363 L -0.000985964 7.702658 L 6.997458 7.704471 L 10.894606 20.104568 L 14.931678 7.70253 L 21.930123 7.704344 L 11.196075 40.700143 L 4.197631 40.69833 Z M 7.331777 31.033363 " stroke="#f97316" stroke-width="8.749991" stroke-opacity="1" stroke-miterlimit="4"/><path fill="#f97316" d="M 149.839844 271.625 L 179.195312 272.179688 L 179.113281 276.566406 L 149.757812 276.011719 Z M 149.839844 271.625 " fill-opacity="1" fill-rule="nonzero"/><path stroke-linecap="butt" transform="matrix(1.462089, 0.0275785, -0.0275785, 1.462089, 150.749423, 223.377348)" fill="none" stroke-linejoin="miter" d="M 0.665903 14.602654 C 0.66601 13.333599 0.944479 12.232953 1.495967 11.300818 C 2.055416 10.36586 2.807662 9.595582 3.750034 8.990035 C 4.694925 8.376425 5.738986 7.921246 6.884836 7.621776 C 8.027914 7.317016 9.200622 7.166655 10.400187 7.165402 C 11.442179 7.167121 12.523325 7.26161 13.646345 7.451491 C 14.769365 7.641372 15.834989 7.904471 16.843217 8.240788 C 17.859356 8.571613 18.711118 8.969658 19.398554 9.437596 C 19.197893 9.989078 18.97012 10.661297 18.715237 11.454253 C 18.460252 12.241868 18.221746 13.053218 17.999717 13.888302 C 17.777587 14.718044 17.586398 15.488425 17.428821 16.199396 C 17.142449 15.889538 16.687467 15.564159 16.063876 15.223258 C 15.445476 14.874244 14.734053 14.55103 13.929607 14.253616 C 13.133073 13.95071 12.310789 13.699051 11.465526 13.503931 C 10.620162 13.30347 9.830128 13.203489 9.098093 13.203938 C 7.962625 13.203982 7.397585 13.559289 7.397632 14.269957 C 7.396672 14.644012 7.683195 14.961882 8.259822 15.220847 C 8.839069 15.47709 9.586623 15.73283 10.497142 15.988168 C 11.407611 16.240835 12.375224 16.54853 13.394538 16.906011 C 14.419092 17.258051 15.386855 17.715357 16.297726 18.27259 C 17.211217 18.827101 17.95388 19.531777 18.528437 20.389239 C 19.108235 21.241259 19.39808 22.301796 19.397973 23.570852 C 19.400032 24.813149 19.113853 25.92997 18.544829 26.923886 C 17.980995 27.909688 17.221946 28.744215 16.267581 29.422124 C 15.310444 30.094742 14.238114 30.609232 13.042628 30.968415 C 11.855003 31.319434 10.640067 31.497309 9.39772 31.496697 C 7.639717 31.495125 6.083534 31.286698 4.726447 30.868796 C 3.377272 30.4454 2.024319 29.821699 0.667587 28.997693 C 1.02013 27.999846 1.328733 26.938707 1.596115 25.816897 C 1.866118 24.692365 2.11289 23.611019 2.336382 22.570188 C 2.645531 22.812823 3.186077 23.141932 3.963311 23.554742 C 4.743114 23.96216 5.666382 24.326797 6.730544 24.654044 C 7.797226 24.973229 8.909009 25.133933 10.065843 25.133486 C 10.397116 25.13258 10.762755 25.112325 11.165332 25.067328 C 11.565288 25.025052 11.910721 24.925027 12.19896 24.767304 C 12.484529 24.609631 12.629556 24.366443 12.628651 24.03517 C 12.628653 23.610372 12.339056 23.271186 11.757189 23.017664 C 11.183284 22.76132 10.441323 22.518833 9.528536 22.284911 C 8.623761 22.050839 7.662094 21.775092 6.648827 21.4549 C 5.63813 21.129316 4.678833 20.695895 3.768214 20.152016 C 2.854874 19.605517 2.109238 18.884867 1.528584 17.987445 C 0.955891 17.0872 0.667457 15.959844 0.665903 14.602654 Z M 0.665903 14.602654 " stroke="#f97316" stroke-width="8.749991" stroke-opacity="1" stroke-miterlimit="4"/><path fill="#f97316" d="M 178.132812 272.128906 L 207.414062 274.300781 L 207.089844 278.675781 L 177.808594 276.503906 Z M 178.132812 272.128906 " fill-opacity="1" fill-rule="nonzero"/><path stroke-linecap="butt" transform="matrix(1.45835, 0.10808, -0.10808, 1.45835, 181.700882, 224.005195)" fill="none" stroke-linejoin="miter" d="M 0.666009 14.604057 C 0.66833 13.334257 0.94287 12.23178 1.497818 11.298698 C 2.055628 10.368082 2.807416 9.597196 3.750717 8.9889 C 4.696286 8.375079 5.739341 7.920102 6.885011 7.620912 C 8.027821 7.319255 9.200333 7.165395 10.40028 7.164858 C 11.439602 7.16551 12.523524 7.261963 13.64652 7.451948 C 14.769516 7.641933 15.836178 7.903056 16.844237 8.240843 C 17.859695 8.570046 18.709006 8.97049 19.399767 9.436256 C 19.199697 9.98947 18.97102 10.66266 18.716398 11.455629 C 18.461185 12.240606 18.221265 13.051235 17.999302 13.887318 C 17.776945 14.718074 17.587539 15.48746 17.428619 16.198337 C 17.143272 15.890024 16.687928 15.564845 16.062585 15.222802 C 15.444839 14.874838 14.732575 14.552629 13.930922 14.253116 C 13.1344 13.950544 12.312325 13.700758 11.464699 13.503758 C 10.619539 13.303896 9.83003 13.204374 9.09617 13.20519 C 7.963018 13.203456 7.397393 13.558765 7.396432 14.268649 C 7.397433 14.643571 7.683569 14.96254 8.259971 15.222497 C 8.838643 15.476929 9.586128 15.732243 10.496901 15.98617 C 11.407871 16.24276 12.373405 16.548878 13.393698 16.907186 C 14.418924 17.259772 15.387522 17.715661 16.299293 18.272189 C 17.210866 18.826053 17.954224 19.531667 18.529365 20.389033 C 19.10944 21.240676 19.399649 22.301299 19.399992 23.570902 C 19.39836 24.813866 19.114151 25.930452 18.544899 26.923522 C 17.98058 27.91087 17.220013 28.744013 16.265665 29.420092 C 15.311119 30.093506 14.237777 30.609655 13.042974 30.968736 C 11.85557 31.319232 10.642015 31.497562 9.39905 31.495931 C 7.642049 31.497574 6.083551 31.286294 4.726813 30.869885 C 3.377671 30.447556 2.024181 29.82198 0.666736 28.998485 C 1.018633 28.000095 1.328496 26.940535 1.596129 25.817141 C 1.866426 24.69355 2.113045 23.611892 2.335789 22.569503 C 2.645898 22.814375 3.18708 23.141227 3.962393 23.555191 C 4.745107 23.960571 5.666836 24.326184 6.730244 24.651834 C 7.798585 24.97176 8.911418 25.133034 10.065881 25.133189 C 10.395318 25.132881 10.763333 25.110964 11.164596 25.067833 C 11.565859 25.024703 11.909304 24.92425 12.197593 24.766279 C 12.485882 24.608308 12.628541 24.364703 12.628232 24.035265 C 12.629006 23.611998 12.338627 23.271915 11.757291 23.017681 C 11.183948 22.762854 10.439917 22.517998 9.528059 22.28558 C 8.621529 22.052768 7.663495 21.775558 6.64863 21.454347 C 5.638895 21.130077 4.679868 20.694907 3.766421 20.151896 C 2.85544 19.606024 2.110897 18.884426 1.53013 17.987299 C 0.954494 17.087114 0.667341 15.959301 0.666009 14.604057 Z M 0.666009 14.604057 " stroke="#f97316" stroke-width="8.749991" stroke-opacity="1" stroke-miterlimit="4"/><path fill="#f97316" d="M 206.3125 274.144531 L 238.25 278.378906 L 237.675781 282.730469 L 205.734375 278.496094 Z M 206.3125 274.144531 " fill-opacity="1" fill-rule="nonzero"/><path stroke-linecap="butt" transform="matrix(1.449668, 0.192169, -0.192169, 1.449668, 212.654376, 226.307431)" fill="none" stroke-linejoin="miter" d="M 12.532377 31.496346 C 10.578841 31.496628 8.871087 31.176009 7.412114 30.536786 C 5.960383 29.891213 4.760018 29.007531 3.815967 27.882388 C 2.872266 26.759894 2.167172 25.465651 1.701038 24.002309 C 1.234552 22.536318 1.001316 20.980126 1.000979 19.331086 C 1.001344 17.687342 1.245238 16.132571 1.733011 14.669423 C 2.220434 13.203627 2.959619 11.909245 3.94527 10.78698 C 4.938865 9.663661 6.174462 8.780416 7.649062 8.134946 C 9.123661 7.489477 10.862088 7.167414 12.86399 7.166109 C 14.550805 7.166154 16.027828 7.514664 17.290113 8.21499 C 18.560693 8.916912 19.544809 9.815787 20.245813 10.916562 C 20.944169 12.017688 21.294577 13.156854 21.294389 14.334412 C 21.296369 15.447012 21.000233 16.526377 20.408982 17.574804 C 19.821973 18.614584 18.856828 19.464673 17.510197 20.120125 C 16.171159 20.771875 14.357534 21.095823 12.067376 21.097615 L 8.170897 21.096775 C 8.435484 22.279653 8.967517 23.203428 9.764699 23.871098 C 10.566476 24.53277 11.591094 24.863109 12.833609 24.865464 C 13.657953 24.863971 14.360801 24.698048 14.947449 24.36699 C 15.539041 24.032583 16.02723 23.649907 16.412366 23.221612 C 16.802097 22.787318 17.077037 22.422133 17.235242 22.131702 C 17.786735 22.999006 18.442395 23.839027 19.196925 24.65247 C 19.95605 25.459914 20.679056 26.177836 21.36789 26.800588 C 20.386144 28.358858 19.099669 29.529085 17.511813 30.316213 C 15.926605 31.102991 14.267559 31.495368 12.532377 31.496346 Z M 8.095624 20.732207 C 9.16636 20.536377 10.1982 20.189418 11.19644 19.690627 C 12.199275 19.185838 13.026567 18.556117 13.678319 17.801464 C 14.335366 17.046109 14.664338 16.194125 14.664181 15.237569 C 14.664519 14.792918 14.507217 14.358385 14.200572 13.935566 C 13.891278 13.513098 13.378122 13.300886 12.661455 13.301577 C 12.020337 13.303032 11.338803 13.528106 10.609962 13.985796 C 9.888714 14.439785 9.272853 15.119621 8.764325 16.019658 C 8.253148 16.920047 7.997947 18.023626 7.99872 19.330396 C 7.999756 19.826062 8.031706 20.290684 8.095624 20.732207 Z M 8.095624 20.732207 " stroke="#f97316" stroke-width="8.749991" stroke-opacity="1" stroke-miterlimit="4"/><g clip-path="url(#bdf573b6f1)"><g clip-path="url(#b53119bc76)"><path fill="#f97316" d="M 237.125 278.199219 L 268.613281 284.324219 L 267.777344 288.632812 L 236.285156 282.503906 Z M 237.125 278.199219 " fill-opacity="1" fill-rule="nonzero"/></g></g><path stroke-linecap="butt" transform="matrix(1.43543, 0.279297, -0.279297, 1.43543, 246.341561, 230.828349)" fill="none" stroke-linejoin="miter" d="M 7.332343 31.032956 L 0.00101523 7.703677 L 6.997378 7.703024 L 10.896246 20.104665 L 14.932527 7.702036 L 21.9294 7.704006 L 11.196783 40.698214 L 4.197798 40.699377 Z M 7.332343 31.032956 " stroke="#f97316" stroke-width="8.749991" stroke-opacity="1" stroke-miterlimit="4"/><path fill="#ffffff" d="M 40.726562 284.09375 L 87.457031 275.699219 L 88.234375 280.015625 L 41.5 288.410156 Z M 40.726562 284.09375 " fill-opacity="1" fill-rule="nonzero"/><g fill="#ffffff" fill-opacity="1"><g transform="translate(40.20859, 281.213655)"><g><path d="M -2.484375 -23.40625 C -3.078125 -26.707031 -3.207031 -29.878906 -2.875 -32.921875 C -2.539062 -35.960938 -1.703125 -38.738281 -0.359375 -41.25 C 0.984375 -43.757812 2.921875 -45.875 5.453125 -47.59375 C 7.992188 -49.320312 11.148438 -50.523438 14.921875 -51.203125 C 18.722656 -51.890625 22.097656 -51.859375 25.046875 -51.109375 C 28.003906 -50.367188 30.550781 -49.054688 32.6875 -47.171875 C 34.820312 -45.296875 36.570312 -42.988281 37.9375 -40.25 C 39.3125 -37.519531 40.296875 -34.503906 40.890625 -31.203125 C 41.484375 -27.910156 41.609375 -24.75 41.265625 -21.71875 C 40.929688 -18.6875 40.09375 -15.914062 38.75 -13.40625 C 37.40625 -10.90625 35.472656 -8.796875 32.953125 -7.078125 C 30.441406 -5.359375 27.285156 -4.15625 23.484375 -3.46875 C 19.710938 -2.789062 16.335938 -2.820312 13.359375 -3.5625 C 10.390625 -4.300781 7.835938 -5.609375 5.703125 -7.484375 C 3.566406 -9.359375 1.816406 -11.65625 0.453125 -14.375 C -0.910156 -17.101562 -1.890625 -20.113281 -2.484375 -23.40625 Z M 8.3125 -25.390625 C 8.78125 -22.742188 9.59375 -20.375 10.75 -18.28125 C 11.90625 -16.195312 13.394531 -14.640625 15.21875 -13.609375 C 17.050781 -12.585938 19.234375 -12.304688 21.765625 -12.765625 C 24.316406 -13.222656 26.28125 -14.253906 27.65625 -15.859375 C 29.039062 -17.460938 29.910156 -19.441406 30.265625 -21.796875 C 30.617188 -24.160156 30.5625 -26.664062 30.09375 -29.3125 C 29.601562 -32 28.78125 -34.378906 27.625 -36.453125 C 26.476562 -38.523438 24.976562 -40.070312 23.125 -41.09375 C 21.28125 -42.113281 19.082031 -42.394531 16.53125 -41.9375 C 14 -41.476562 12.050781 -40.445312 10.6875 -38.84375 C 9.332031 -37.25 8.472656 -35.28125 8.109375 -32.9375 C 7.753906 -30.59375 7.820312 -28.078125 8.3125 -25.390625 Z M 8.3125 -25.390625 "/></g></g></g><path fill="#ffffff" d="M 86.058594 276.152344 L 120.066406 272.707031 L 120.511719 277.070312 L 86.5 280.519531 Z M 86.058594 276.152344 " fill-opacity="1" fill-rule="nonzero"/><g fill="#ffffff" fill-opacity="1"><g transform="translate(85.764279, 273.243344)"><g><path d="M 12.4375 -0.515625 C 10.53125 -0.328125 8.832031 -0.695312 7.34375 -1.625 C 5.863281 -2.550781 4.59375 -3.84375 3.53125 -5.5 C 2.46875 -7.15625 1.625 -8.992188 1 -11.015625 C 0.375 -13.035156 -0.0390625 -15.066406 -0.25 -17.109375 C -0.457031 -19.203125 -0.410156 -21.316406 -0.109375 -23.453125 C 0.179688 -25.597656 0.804688 -27.59375 1.765625 -29.4375 C 2.722656 -31.289062 4.0625 -32.828125 5.78125 -34.046875 C 7.5 -35.265625 9.671875 -36.007812 12.296875 -36.28125 C 13.484375 -36.394531 14.546875 -36.328125 15.484375 -36.078125 C 16.429688 -35.835938 17.285156 -35.476562 18.046875 -35 L 17.671875 -38.78125 C 17.628906 -39.132812 17.539062 -39.675781 17.40625 -40.40625 C 17.269531 -41.144531 17.015625 -41.90625 16.640625 -42.6875 C 16.265625 -43.46875 15.722656 -44.113281 15.015625 -44.625 C 14.316406 -45.144531 13.390625 -45.347656 12.234375 -45.234375 L 12.203125 -45.46875 C 13.378906 -45.664062 14.632812 -46.015625 15.96875 -46.515625 C 17.3125 -47.015625 18.625 -47.617188 19.90625 -48.328125 C 21.1875 -49.035156 22.382812 -49.742188 23.5 -50.453125 C 24.625 -51.171875 25.570312 -51.816406 26.34375 -52.390625 L 30.71875 -9.140625 C 30.84375 -7.941406 31.101562 -6.785156 31.5 -5.671875 C 31.90625 -4.554688 32.410156 -3.78125 33.015625 -3.34375 L 21.375 -2.171875 L 20.28125 -13.03125 L 17.46875 -2.953125 C 16.945312 -2.316406 16.257812 -1.78125 15.40625 -1.34375 C 14.5625 -0.90625 13.570312 -0.628906 12.4375 -0.515625 Z M 9.671875 -17.25 C 10.179688 -12.164062 11.957031 -9.78125 15 -10.09375 C 16.382812 -10.226562 17.472656 -10.734375 18.265625 -11.609375 C 19.054688 -12.492188 19.671875 -13.519531 20.109375 -14.6875 L 18.765625 -27.921875 C 17.972656 -28.054688 17.109375 -28.078125 16.171875 -27.984375 C 14.523438 -27.816406 13.191406 -27.191406 12.171875 -26.109375 C 11.160156 -25.023438 10.445312 -23.695312 10.03125 -22.125 C 9.613281 -20.550781 9.492188 -18.925781 9.671875 -17.25 Z M 9.671875 -17.25 "/></g></g></g><g clip-path="url(#4a46d6766f)"><g clip-path="url(#c12049db71)"><path fill="#ffffff" d="M 118.882812 272.820312 L 150.9375 271.574219 L 151.109375 275.960938 L 119.050781 277.203125 Z M 118.882812 272.820312 " fill-opacity="1" fill-rule="nonzero"/></g></g><g fill="#ffffff" fill-opacity="1"><g transform="translate(118.768941, 269.898597)"><g><path d="M 10.703125 -0.375 L -1.328125 -34.03125 L 8.90625 -34.421875 L 15.296875 -16.546875 L 20.484375 -34.875 L 30.703125 -35.28125 L 16.90625 13.53125 L 6.6875 13.9375 Z M 10.703125 -0.375 "/></g></g></g><path fill="#ffffff" d="M 149.839844 271.625 L 179.195312 272.179688 L 179.113281 276.566406 L 149.757812 276.011719 Z M 149.839844 271.625 " fill-opacity="1" fill-rule="nonzero"/><g fill="#ffffff" fill-opacity="1"><g transform="translate(149.894489, 268.702109)"><g><path d="M 1.421875 -23.96875 C 1.453125 -25.8125 1.882812 -27.40625 2.71875 -28.75 C 3.5625 -30.101562 4.679688 -31.210938 6.078125 -32.078125 C 7.472656 -32.953125 9.015625 -33.59375 10.703125 -34 C 12.390625 -34.40625 14.109375 -34.59375 15.859375 -34.5625 C 17.390625 -34.53125 18.972656 -34.359375 20.609375 -34.046875 C 22.242188 -33.742188 23.796875 -33.332031 25.265625 -32.8125 C 26.734375 -32.300781 27.960938 -31.695312 28.953125 -31 C 28.648438 -30.1875 28.296875 -29.207031 27.890625 -28.0625 C 27.492188 -26.925781 27.125 -25.75 26.78125 -24.53125 C 26.4375 -23.320312 26.140625 -22.195312 25.890625 -21.15625 C 25.484375 -21.625 24.828125 -22.113281 23.921875 -22.625 C 23.023438 -23.144531 21.992188 -23.632812 20.828125 -24.09375 C 19.660156 -24.5625 18.460938 -24.953125 17.234375 -25.265625 C 16.003906 -25.585938 14.851562 -25.757812 13.78125 -25.78125 C 12.125 -25.8125 11.289062 -25.304688 11.28125 -24.265625 C 11.269531 -23.710938 11.679688 -23.238281 12.515625 -22.84375 C 13.359375 -22.457031 14.441406 -22.0625 15.765625 -21.65625 C 17.085938 -21.257812 18.488281 -20.785156 19.96875 -20.234375 C 21.457031 -19.691406 22.859375 -19 24.171875 -18.15625 C 25.492188 -17.320312 26.5625 -16.269531 27.375 -15 C 28.195312 -13.738281 28.59375 -12.1875 28.5625 -10.34375 C 28.53125 -8.519531 28.085938 -6.890625 27.234375 -5.453125 C 26.378906 -4.023438 25.242188 -2.828125 23.828125 -1.859375 C 22.410156 -0.898438 20.828125 -0.175781 19.078125 0.3125 C 17.328125 0.800781 15.546875 1.03125 13.734375 1 C 11.160156 0.945312 8.890625 0.59375 6.921875 -0.0625 C 4.953125 -0.71875 2.988281 -1.664062 1.03125 -2.90625 C 1.570312 -4.351562 2.050781 -5.894531 2.46875 -7.53125 C 2.894531 -9.164062 3.285156 -10.742188 3.640625 -12.265625 C 4.085938 -11.898438 4.875 -11.40625 6 -10.78125 C 7.125 -10.15625 8.460938 -9.59375 10.015625 -9.09375 C 11.566406 -8.59375 13.1875 -8.328125 14.875 -8.296875 C 15.363281 -8.285156 15.898438 -8.304688 16.484375 -8.359375 C 17.078125 -8.410156 17.582031 -8.546875 18 -8.765625 C 18.425781 -8.992188 18.644531 -9.351562 18.65625 -9.84375 C 18.664062 -10.457031 18.253906 -10.957031 17.421875 -11.34375 C 16.585938 -11.738281 15.503906 -12.117188 14.171875 -12.484375 C 12.847656 -12.847656 11.453125 -13.28125 9.984375 -13.78125 C 8.515625 -14.28125 7.125 -14.941406 5.8125 -15.765625 C 4.5 -16.585938 3.425781 -17.660156 2.59375 -18.984375 C 1.769531 -20.316406 1.378906 -21.976562 1.421875 -23.96875 Z M 1.421875 -23.96875 "/></g></g></g><path fill="#ffffff" d="M 178.132812 272.128906 L 207.414062 274.300781 L 207.089844 278.675781 L 177.808594 276.503906 Z M 178.132812 272.128906 " fill-opacity="1" fill-rule="nonzero"/><g fill="#ffffff" fill-opacity="1"><g transform="translate(178.350404, 269.214036)"><g><path d="M 2.734375 -23.84375 C 2.878906 -25.675781 3.40625 -27.242188 4.3125 -28.546875 C 5.21875 -29.859375 6.394531 -30.90625 7.84375 -31.6875 C 9.289062 -32.476562 10.863281 -33.03125 12.5625 -33.34375 C 14.269531 -33.664062 15.992188 -33.757812 17.734375 -33.625 C 19.265625 -33.507812 20.835938 -33.253906 22.453125 -32.859375 C 24.066406 -32.460938 25.59375 -31.960938 27.03125 -31.359375 C 28.46875 -30.765625 29.660156 -30.09375 30.609375 -29.34375 C 30.253906 -28.5625 29.847656 -27.609375 29.390625 -26.484375 C 28.929688 -25.359375 28.492188 -24.203125 28.078125 -23.015625 C 27.671875 -21.828125 27.316406 -20.71875 27.015625 -19.6875 C 26.640625 -20.175781 26.015625 -20.703125 25.140625 -21.265625 C 24.265625 -21.835938 23.257812 -22.382812 22.125 -22.90625 C 20.988281 -23.4375 19.8125 -23.894531 18.59375 -24.28125 C 17.382812 -24.664062 16.25 -24.894531 15.1875 -24.96875 C 13.53125 -25.09375 12.664062 -24.640625 12.59375 -23.609375 C 12.550781 -23.054688 12.9375 -22.5625 13.75 -22.125 C 14.570312 -21.6875 15.628906 -21.226562 16.921875 -20.75 C 18.222656 -20.28125 19.597656 -19.734375 21.046875 -19.109375 C 22.503906 -18.484375 23.863281 -17.710938 25.125 -16.796875 C 26.394531 -15.890625 27.40625 -14.78125 28.15625 -13.46875 C 28.914062 -12.164062 29.222656 -10.59375 29.078125 -8.75 C 28.953125 -6.9375 28.421875 -5.335938 27.484375 -3.953125 C 26.546875 -2.566406 25.34375 -1.429688 23.875 -0.546875 C 22.414062 0.335938 20.800781 0.972656 19.03125 1.359375 C 17.257812 1.753906 15.472656 1.882812 13.671875 1.75 C 11.097656 1.5625 8.84375 1.082031 6.90625 0.3125 C 4.976562 -0.445312 3.070312 -1.492188 1.1875 -2.828125 C 1.8125 -4.253906 2.378906 -5.769531 2.890625 -7.375 C 3.398438 -8.988281 3.867188 -10.546875 4.296875 -12.046875 C 4.734375 -11.660156 5.492188 -11.125 6.578125 -10.4375 C 7.671875 -9.75 8.976562 -9.109375 10.5 -8.515625 C 12.03125 -7.929688 13.632812 -7.578125 15.3125 -7.453125 C 15.800781 -7.421875 16.335938 -7.414062 16.921875 -7.4375 C 17.503906 -7.457031 18.015625 -7.566406 18.453125 -7.765625 C 18.898438 -7.960938 19.140625 -8.304688 19.171875 -8.796875 C 19.222656 -9.410156 18.835938 -9.9375 18.015625 -10.375 C 17.203125 -10.8125 16.144531 -11.25 14.84375 -11.6875 C 13.539062 -12.125 12.164062 -12.628906 10.71875 -13.203125 C 9.28125 -13.785156 7.925781 -14.519531 6.65625 -15.40625 C 5.394531 -16.300781 4.390625 -17.429688 3.640625 -18.796875 C 2.890625 -20.171875 2.585938 -21.851562 2.734375 -23.84375 Z M 2.734375 -23.84375 "/></g></g></g><path fill="#ffffff" d="M 206.3125 274.144531 L 238.25 278.378906 L 237.675781 282.730469 L 205.734375 278.496094 Z M 206.3125 274.144531 " fill-opacity="1" fill-rule="nonzero"/><g fill="#ffffff" fill-opacity="1"><g transform="translate(206.697133, 271.247127)"><g><path d="M 18.078125 3.140625 C 15.234375 2.765625 12.820312 1.96875 10.84375 0.75 C 8.863281 -0.46875 7.296875 -1.976562 6.140625 -3.78125 C 4.984375 -5.582031 4.207031 -7.59375 3.8125 -9.8125 C 3.414062 -12.039062 3.375 -14.347656 3.6875 -16.734375 C 4.007812 -19.109375 4.664062 -21.3125 5.65625 -23.34375 C 6.644531 -25.375 7.960938 -27.101562 9.609375 -28.53125 C 11.253906 -29.96875 13.207031 -31.015625 15.46875 -31.671875 C 17.738281 -32.328125 20.328125 -32.460938 23.234375 -32.078125 C 25.671875 -31.753906 27.738281 -30.960938 29.4375 -29.703125 C 31.144531 -28.441406 32.398438 -26.945312 33.203125 -25.21875 C 34.015625 -23.488281 34.304688 -21.769531 34.078125 -20.0625 C 33.859375 -18.457031 33.222656 -16.953125 32.171875 -15.546875 C 31.117188 -14.140625 29.550781 -13.085938 27.46875 -12.390625 C 25.394531 -11.703125 22.703125 -11.582031 19.390625 -12.03125 L 13.734375 -12.78125 C 13.898438 -11.019531 14.492188 -9.578125 15.515625 -8.453125 C 16.546875 -7.335938 17.96875 -6.660156 19.78125 -6.421875 C 20.96875 -6.265625 22.019531 -6.367188 22.9375 -6.734375 C 23.863281 -7.097656 24.648438 -7.554688 25.296875 -8.109375 C 25.941406 -8.671875 26.40625 -9.148438 26.6875 -9.546875 C 27.3125 -8.179688 28.09375 -6.835938 29.03125 -5.515625 C 29.976562 -4.191406 30.894531 -3.015625 31.78125 -1.984375 C 30.0625 0.0859375 27.972656 1.539062 25.515625 2.375 C 23.066406 3.21875 20.585938 3.472656 18.078125 3.140625 Z M 13.703125 -13.328125 C 15.296875 -13.410156 16.863281 -13.71875 18.40625 -14.25 C 19.945312 -14.78125 21.265625 -15.53125 22.359375 -16.5 C 23.453125 -17.46875 24.09375 -18.644531 24.28125 -20.03125 C 24.363281 -20.6875 24.222656 -21.347656 23.859375 -22.015625 C 23.492188 -22.679688 22.796875 -23.082031 21.765625 -23.21875 C 20.828125 -23.34375 19.789062 -23.144531 18.65625 -22.625 C 17.519531 -22.101562 16.492188 -21.238281 15.578125 -20.03125 C 14.671875 -18.832031 14.085938 -17.285156 13.828125 -15.390625 C 13.734375 -14.671875 13.691406 -13.984375 13.703125 -13.328125 Z M 13.703125 -13.328125 "/></g></g></g><g clip-path="url(#3b11b149fc)"><g clip-path="url(#69080f76b5)"><path fill="#ffffff" d="M 237.125 278.199219 L 268.613281 284.324219 L 267.777344 288.632812 L 236.285156 282.503906 Z M 237.125 278.199219 " fill-opacity="1" fill-rule="nonzero"/></g></g><g fill="#ffffff" fill-opacity="1"><g transform="translate(237.683361, 275.32667)"><g><path d="M 10.5 2.09375 L 6.5 -33.4375 L 16.546875 -31.484375 L 18.6875 -12.59375 L 27.921875 -29.265625 L 37.96875 -27.3125 L 13.375 17.046875 L 3.328125 15.09375 Z M 10.5 2.09375 "/></g></g></g></svg>